<svg id="main-svg" viewBox="0 0 1600 900" preserveAspectRatio="xMidYMid meet" xmlns="http://www.w3.org/2000/svg">
    <defs>
        <filter id="glow-blue"><feGaussianBlur stdDeviation="4" result="coloredBlur"/><feMerge><feMergeNode in="coloredBlur"/><feMergeNode in="SourceGraphic"/></feMerge></filter>
        <filter id="glow-pink"><feGaussianBlur stdDeviation="4" result="coloredBlur"/><feMerge><feMergeNode in="coloredBlur"/><feMergeNode in="SourceGraphic"/></feMerge></filter>
        <filter id="glow-yellow"><feGaussianBlur stdDeviation="4" result="coloredBlur"/><feMerge><feMergeNode in="coloredBlur"/><feMergeNode in="SourceGraphic"/></feMerge></filter>
    </defs>

    <!-- Wires / Bus -->
    <path id="wire_bus_main" class="wire" d="M 100 250 L 950 250" />
    <text x="120" y="240" fill="#22c55e" font-size="14" font-weight="bold" font-family="sans-serif">DATA BUS</text>
    <path id="path_ram_out" class="wire" d="M 300 350 L 300 250" />
    <path id="path_ram_in" class="wire" d="M 300 250 L 300 350" />
    <path id="path_pc_out" class="wire" d="M 700 350 L 700 250" />
    <path id="path_ir_in" class="wire" d="M 850 250 L 850 350" />
    <path id="path_ir_cu" class="wire" d="M 850 450 L 850 550" />
    <path id="path_cu_alu" class="wire" d="M 850 650 L 850 700 L 1150 700 L 1150 450" />
    <path id="path_acc_alu" class="wire" d="M 1300 550 L 1300 450" />
    <path id="path_alu_acc" class="wire" d="M 1225 350 L 1225 300 L 1450 300 L 1450 600 L 1400 600" />

    <!-- RAM -->
    <g id="node_ram" transform="translate(200, 350)">
        <rect class="comp-bg type-blue" width="200" height="400" rx="10" filter="url(#glow-blue)"/>
        <text class="comp-label text-blue" x="100" y="40">RAM</text>
        <text id="val_ram" class="comp-val" x="100" y="200">Addr 0x1A</text>
        <text class="comp-val" x="100" y="230" font-size="16" fill="#aaa">[INC ACC]</text>
    </g>

    <!-- CPU Boundary -->
    <rect x="600" y="150" width="900" height="700" rx="20" fill="none" stroke="#1e293b" stroke-width="4" stroke-dasharray="20 10" />
    <text x="640" y="200" fill="#334155" font-size="30" font-weight="bold">CPU</text>

    <!-- Program Counter -->
    <g id="node_pc" transform="translate(650, 350)">
        <rect class="comp-bg type-blue" width="100" height="100" rx="8" filter="url(#glow-blue)"/>
        <text class="comp-label text-blue" x="50" y="30">PC</text>
        <text id="val_pc" class="comp-val" x="50" y="70">0x1A</text>
    </g>

    <!-- Instruction Register -->
    <g id="node_ir" transform="translate(800, 350)">
        <rect class="comp-bg type-blue" width="100" height="100" rx="8" filter="url(#glow-blue)"/>
        <text class="comp-label text-blue" x="50" y="30">IR</text>
        <text id="val_ir" class="comp-val" x="50" y="70">--</text>
    </g>

    <!-- Control Unit -->
    <g id="node_cu" transform="translate(750, 550)">
        <rect class="comp-bg type-yellow" width="200" height="100" rx="8" filter="url(#glow-yellow)" />
        <text class="comp-label text-yellow" x="100" y="30">CONTROL</text>
        <text id="val_cu" class="comp-val" x="100" y="70">IDLE</text>
    </g>

    <!-- ALU -->
    <g id="node_alu" transform="translate(1100, 350)">
        <path class="comp-bg type-pink" d="M 20 0 L 230 0 L 200 100 L 50 100 Z" filter="url(#glow-pink)"/>
        <text class="comp-label text-pink" x="125" y="35">ALU</text>
        <text id="val_alu" class="comp-val" x="125" y="75">WAIT</text>
    </g>

    <!-- Accumulator -->
    <g id="node_acc" transform="translate(1250, 550)">
        <rect class="comp-bg type-blue" width="150" height="100" rx="8" filter="url(#glow-blue)"/>
        <text class="comp-label text-blue" x="75" y="30">ACC</text>
        <text id="val_acc" class="comp-val" x="75" y="70">05</text>
    </g>

    <!-- Data Packet (animated element) -->
    <g id="packet-grp">
        <rect class="packet-bg" x="-40" y="-20" width="80" height="40" rx="10" />
        <text id="packet-text" class="packet-text" x="0" y="0">DATA</text>
    </g>
</svg>
